<?xml version="1.0" standalone="no"?>
<!DOCTYPE svg PUBLIC "-//W3C//DTD SVG 20010904//EN"
 "http://www.w3.org/TR/2001/REC-SVG-20010904/DTD/svg10.dtd">
<svg version="1.0" xmlns="http://www.w3.org/2000/svg"
 width="752.000000pt" height="564.000000pt" viewBox="0 0 752.000000 564.000000"
 preserveAspectRatio="xMidYMid meet">

<g transform="translate(0.000000,564.000000) scale(0.100000,-0.100000)"
fill="#000000" stroke="none">
<path d="M0 2820 l0 -2820 3760 0 3760 0 0 2820 0 2820 -3760 0 -3760 0 0
-2820z m3630 2468 c0 -7 -3 -24 -7 -37 l-6 -24 -19 24 c-14 17 -16 18 -9 4 6
-11 19 -31 30 -45 l20 -25 7 33 c4 17 11 32 16 32 11 0 -1 -64 -13 -68 -11 -5
62 -113 73 -110 5 2 23 35 39 73 31 74 63 116 77 100 15 -17 152 -353 152
-372 0 -10 -4 -24 -9 -31 -6 -9 -15 4 -31 43 -12 30 -24 54 -27 52 -2 -3 8
-31 22 -63 15 -33 35 -81 46 -109 l20 -50 -104 110 -104 110 -27 -54 c-15 -29
-30 -51 -33 -48 -3 3 8 31 25 61 17 31 27 56 23 56 -5 0 -23 -31 -40 -70 -18
-38 -34 -70 -36 -70 -9 0 -225 272 -225 284 0 19 69 167 88 189 17 20 52 23
52 5z m84 -117 c20 -28 25 -45 20 -65 -3 -14 -9 -26 -13 -26 -10 0 -51 68 -51
84 0 15 10 46 15 46 1 0 14 -17 29 -39z m-2616 -337 c86 -43 139 -143 108
-204 -15 -31 -15 -31 18 -47 19 -9 43 -33 55 -53 12 -21 37 -52 55 -68 l34
-30 -27 -26 c-15 -14 -38 -26 -50 -26 -13 0 -39 -13 -58 -30 l-34 -30 -147 0
c-81 0 -152 4 -158 8 -16 11 -24 64 -15 105 9 37 48 95 66 97 6 1 21 15 34 33
l25 32 -25 -22 c-29 -26 -49 -30 -49 -9 0 16 50 52 65 47 6 -1 -4 12 -22 31
-18 18 -39 49 -48 68 -15 35 -16 35 -10 5 5 -25 0 -36 -20 -55 -22 -21 -28
-22 -35 -10 -19 29 -11 94 15 123 14 16 30 25 35 22 6 -3 10 1 10 9 0 25 50
56 89 56 21 0 60 -12 89 -26z m870 -10 c12 -8 22 -22 22 -30 0 -8 4 -14 8 -14
15 0 52 -77 52 -106 -1 -135 -370 -460 -715 -629 -151 -75 -237 -105 -317
-112 -71 -7 -106 7 -136 52 -20 32 -20 35 -5 36 14 0 15 2 3 6 -29 11 -50 36
-50 60 0 51 113 223 147 223 11 0 5 -13 -19 -43 -46 -55 -78 -108 -78 -127 1
-8 8 1 16 20 8 19 26 49 40 68 l26 33 24 -35 c13 -19 24 -37 24 -41 0 -3 -13
-23 -29 -46 -17 -22 -31 -45 -33 -51 -6 -18 -58 0 -59 20 0 13 -2 13 -6 3 -3
-8 2 -20 13 -28 88 -64 486 117 776 354 136 112 276 278 254 301 -3 3 -6 1 -6
-5 0 -6 -21 -13 -47 -16 -27 -4 -57 -9 -69 -12 -16 -5 -26 2 -47 33 l-26 40
37 10 c20 5 29 10 20 11 -9 1 -51 -12 -92 -28 -76 -29 -120 -25 -49 4 41 18
136 50 168 58 47 11 131 6 153 -9z m2045 -22 c-3 -12 -9 -22 -14 -22 -12 0
-11 7 2 32 13 25 20 19 12 -10z m-2500 -6 c63 -23 117 -67 148 -121 32 -56 38
-119 15 -151 -13 -17 -13 -21 5 -35 20 -15 20 -16 -24 -52 -25 -20 -96 -71
-158 -113 -126 -85 -127 -85 -128 7 -1 60 21 111 61 142 l32 26 -47 43 c-53
50 -77 99 -77 158 0 53 14 78 53 95 40 18 72 18 120 1z m2530 -28 c7 -26 -1
-68 -13 -68 -4 0 -10 10 -14 23 -6 26 2 67 14 67 4 0 10 -10 13 -22z m-2700
-148 c6 -16 -59 -77 -70 -66 -4 3 -8 30 -11 59 -4 50 -2 57 29 92 l34 38 6
-54 c4 -30 9 -61 12 -69z m4955 25 c13 -28 36 -54 57 -66 19 -12 35 -24 35
-28 0 -14 -47 -33 -71 -28 -22 4 -21 5 9 12 35 8 44 25 12 25 -24 0 -86 53
-106 91 -19 37 -18 39 14 39 23 0 32 -8 50 -45z m-5373 -15 c-16 -16 -33 -30
-39 -30 -5 0 3 14 19 30 16 17 33 30 39 30 5 0 -3 -13 -19 -30z m5362 -55 c34
-21 42 -35 20 -35 -8 0 -22 -9 -32 -20 -10 -11 -23 -17 -29 -13 -6 3 -8 3 -4
-2 4 -4 0 -21 -8 -37 l-16 -30 -18 29 c-10 16 -35 44 -56 62 -37 31 -37 33
-12 27 15 -3 30 -2 33 4 4 6 -1 7 -12 3 -11 -4 -3 10 20 35 20 23 37 47 37 54
0 6 10 -4 23 -23 12 -19 37 -43 54 -54z m-4946 -36 c-45 -37 -56 -26 -13 13
19 16 37 26 40 23 4 -4 -8 -20 -27 -36z m4690 -16 c29 -83 83 -145 141 -165
15 -5 28 -14 28 -18 0 -16 -87 -50 -126 -49 l-39 1 40 19 c22 10 56 19 75 20
33 1 32 2 -16 13 -86 21 -134 60 -177 143 -27 51 -23 63 23 63 35 0 42 -4 51
-27z m-4582 -23 c0 -3 -16 -18 -34 -33 -30 -24 -37 -27 -57 -16 -22 12 -22 12
17 44 32 27 42 31 57 22 10 -7 18 -14 17 -17z m4495 -12 c9 -37 64 -97 117
-127 l48 -27 -33 -12 c-39 -15 -111 -89 -131 -135 l-13 -32 -10 25 c-21 53
-71 108 -122 133 l-52 26 35 15 c49 20 114 82 129 122 14 40 24 43 32 12z
m364 -5 c-10 -2 -26 -2 -35 0 -10 3 -2 5 17 5 19 0 27 -2 18 -5z m-24 -58 c-6
-16 -64 -22 -64 -7 0 15 13 22 41 22 21 0 27 -4 23 -15z m-4915 -27 c-7 -14
-10 -46 -6 -90 6 -69 6 -69 -25 -88 -18 -10 -35 -17 -40 -14 -12 7 -10 88 3
121 6 15 22 43 35 60 28 37 51 45 33 11z m535 -98 l27 -49 -121 -3 c-66 -2
-120 -1 -119 2 0 3 35 32 77 66 88 70 90 69 136 -16z m4386 -65 c7 -21 30 -51
56 -73 l44 -37 -22 -17 c-13 -10 -34 -18 -48 -17 -24 0 -24 0 -6 14 11 8 31
15 45 15 22 1 21 3 -11 14 -58 21 -86 43 -108 86 -26 50 -26 50 9 50 25 0 31
-6 41 -35z m-1545 -9 c174 -86 241 -314 128 -445 -97 -114 -289 -107 -405 15
-62 65 -92 137 -92 219 0 80 21 129 76 182 71 69 188 80 293 29z m1335 24 c0
-5 -21 -10 -46 -10 -27 0 -43 4 -39 10 3 6 24 10 46 10 21 0 39 -4 39 -10z
m-4160 -17 c0 -4 -12 -20 -27 -35 -26 -27 -31 -28 -117 -28 l-91 1 40 34 c38
33 44 35 118 35 42 0 77 -3 77 -7z m4359 -76 c18 -15 38 -27 44 -27 7 0 -1 -8
-18 -19 -33 -20 -66 -54 -83 -86 -7 -12 -12 -15 -12 -6 0 24 -47 77 -80 91
l-31 13 39 23 c21 13 47 39 57 58 l19 35 17 -28 c9 -15 31 -39 48 -54z m-247
-2 c-4 -22 -9 -25 -48 -25 -44 0 -49 5 -38 34 4 11 19 16 49 16 40 0 42 -2 37
-25z m283 -95 c-3 -5 -17 -10 -31 -10 -13 0 -24 5 -24 10 0 6 14 10 31 10 17
0 28 -4 24 -10z m-2544 -55 c-29 -14 -56 -23 -60 -21 -7 5 -141 -10 -176 -19
-16 -5 -17 -4 -4 4 25 16 204 54 279 59 8 0 -9 -10 -39 -23z m313 15 c69 -10
135 -39 191 -85 l30 -23 -40 -6 c-22 -3 -60 -13 -84 -20 -42 -14 -46 -14 -100
13 -79 40 -152 62 -246 76 l-80 11 55 22 c62 24 161 28 274 12z m-1078 -29
c49 -11 137 -36 194 -56 57 -19 107 -35 110 -35 3 0 -8 -8 -23 -19 -27 -18
-29 -17 -127 10 -279 78 -470 60 -586 -55 -53 -54 -78 -108 -90 -198 -7 -52
10 -189 31 -246 19 -51 18 -32 -1 42 -10 35 -17 101 -17 157 -1 89 2 102 32
163 59 121 160 171 341 171 58 0 123 -4 145 -9 l40 -8 -27 -20 c-23 -16 -46
-20 -145 -22 -93 -2 -130 -7 -173 -24 -147 -58 -216 -195 -189 -374 6 -40 12
-91 14 -113 1 -23 23 -85 53 -147 l50 -108 -65 -65 c-49 -50 -68 -63 -75 -53
-5 7 -30 56 -57 108 -245 485 -180 835 173 916 83 19 274 12 392 -15z m3278 4
c-6 -16 -64 -22 -64 -7 0 15 13 22 41 22 21 0 27 -4 23 -15z m-1967 -30 c1 0
5 -13 9 -29 l7 -29 -45 34 c-25 19 -54 39 -64 46 -11 6 6 4 36 -5 30 -9 56
-16 57 -17z m-648 -25 c-35 -30 -96 -109 -114 -147 0 -1 -35 -9 -76 -18 -111
-22 -204 -56 -343 -123 -5 -3 4 19 20 48 37 68 125 157 189 192 58 31 186 65
288 77 40 5 74 9 77 10 3 0 -16 -17 -41 -39z m260 5 c36 -9 94 -30 129 -46
l65 -29 -49 -52 c-54 -59 -51 -58 -173 -33 -61 12 -119 16 -208 13 -68 -1
-123 -2 -123 0 0 14 68 98 107 132 l48 42 70 -5 c39 -3 99 -13 134 -22z m475
-82 c15 -32 15 -38 2 -51 -13 -13 -17 -10 -35 25 -15 30 -17 43 -8 52 17 17
22 14 41 -26z m-49 -23 l25 -50 -27 0 c-16 0 -43 -4 -62 -10 -31 -9 -37 -6
-87 38 l-53 47 32 12 c18 6 58 12 89 12 l58 1 25 -50z m-142 -47 l27 -29 -40
-43 c-37 -39 -43 -42 -58 -28 -9 8 -36 24 -59 36 -24 12 -43 26 -43 31 0 6 20
31 45 56 l45 45 28 -20 c15 -10 39 -32 55 -48z m-1011 -10 c-22 -27 -50 -69
-63 -95 -17 -32 -44 -61 -89 -94 -36 -26 -89 -70 -119 -98 l-54 -51 29 54 c36
67 156 196 252 273 40 32 76 58 78 58 3 0 -13 -21 -34 -47z m746 -18 c57 -13
72 -20 68 -32 -3 -8 -6 -19 -6 -25 0 -6 -16 -8 -42 -3 -24 3 -61 7 -83 7 -22
1 -45 8 -51 16 -13 18 -34 8 -34 -17 0 -10 11 -50 24 -89 14 -40 23 -72 22
-72 -2 0 -43 -7 -92 -15 -77 -13 -133 -27 -218 -52 -18 -5 -19 0 -13 98 3 57
13 125 22 151 14 40 21 47 48 51 67 10 284 -1 355 -18z m-398 11 c0 -2 -7 -21
-16 -42 -11 -25 -18 -80 -22 -150 l-5 -110 -66 -24 c-78 -28 -249 -108 -308
-144 l-41 -26 -7 58 c-7 60 6 186 27 255 13 42 36 57 168 111 76 31 270 83
270 72z m844 -33 c3 -21 6 -53 6 -70 0 -30 -3 -33 -29 -33 -16 0 -36 -3 -45
-6 -10 -4 -16 -1 -16 7 0 8 -11 38 -25 66 l-24 53 32 9 c18 5 46 10 63 10 29
1 32 -2 38 -36z m115 -57 c28 -15 29 -18 19 -47 -6 -18 -16 -28 -23 -25 -7 2
-31 10 -54 17 -39 12 -41 14 -41 53 0 23 -3 52 -7 66 -6 23 -4 23 35 -12 22
-20 54 -44 71 -52z m-220 -14 c14 -41 13 -43 -14 -67 -15 -15 -28 -25 -29 -23
-1 2 -17 22 -34 44 -18 23 -32 47 -32 52 0 6 14 25 32 42 31 32 32 32 48 13 9
-11 22 -39 29 -61z m-169 22 c35 -23 39 -30 32 -53 -4 -14 -7 -43 -7 -63 0
-39 -14 -48 -44 -29 -11 7 -10 13 4 35 18 27 18 27 -15 61 -19 19 -42 37 -52
41 -17 5 -25 34 -12 47 8 8 46 -7 94 -39z m-286 10 c10 -13 16 -13 38 -3 22
10 33 9 62 -5 19 -9 41 -14 49 -10 12 4 14 -7 13 -60 l-1 -66 -30 0 c-16 0
-46 -3 -66 -6 l-37 -6 -26 78 c-14 44 -26 82 -26 87 0 12 12 8 24 -9z m231
-55 c39 -34 42 -45 21 -75 -11 -15 -23 -20 -45 -16 -31 4 -31 5 -31 63 0 33 4
59 10 59 5 0 25 -14 45 -31z m581 1 c17 0 37 -7 45 -16 11 -13 6 -21 -28 -56
l-41 -40 -46 31 c-41 28 -45 35 -40 59 10 40 12 41 47 31 17 -5 46 -9 63 -9z
m161 -19 l32 -38 -28 -21 -28 -20 -41 48 c-40 47 -43 60 -14 60 12 0 12 -3 2
-15 -7 -8 -8 -15 -4 -15 5 0 15 9 22 20 17 27 22 26 59 -19z m-573 -96 c-3
-22 -8 -42 -9 -43 -2 -2 -17 6 -34 19 -28 20 -31 28 -31 74 0 29 3 55 8 59 4
4 22 -9 40 -30 29 -34 32 -43 26 -79z m166 85 c0 -5 -5 -10 -11 -10 -6 0 -24
-14 -40 -31 l-29 -31 0 34 c0 19 3 38 7 41 10 11 73 8 73 -3z m55 0 c18 -8 17
-9 -7 -9 -15 -1 -30 4 -33 9 -7 12 12 12 40 0z m-1362 -52 c-9 -32 -16 -102
-17 -176 l-2 -122 -64 -52 c-60 -48 -68 -51 -132 -56 -69 -5 -69 -5 -64 19 3
13 8 46 11 72 14 103 34 148 98 215 51 52 170 152 182 152 2 0 -4 -24 -12 -52z
m1217 -9 c0 -50 -13 -89 -29 -89 -5 0 -11 23 -15 51 -6 41 -4 55 10 70 27 30
34 23 34 -32z m174 39 c-5 -8 -2 -9 10 -5 9 4 15 3 12 -2 -3 -5 1 -15 10 -22
22 -18 44 -64 44 -93 0 -13 -12 -38 -26 -55 -21 -26 -33 -31 -67 -31 -55 0
-104 31 -123 76 -30 72 4 125 89 135 29 3 53 7 55 8 2 0 0 -4 -4 -11z m278
-66 c-7 -9 -22 -36 -33 -60 -11 -24 -22 -42 -24 -40 -2 2 -19 23 -38 48 l-35
45 41 43 41 42 31 -30 c25 -26 28 -33 17 -48z m-166 7 c12 -14 12 -18 -5 -33
-18 -17 -20 -16 -26 6 -4 13 -17 36 -28 52 l-21 29 33 -19 c18 -10 39 -26 47
-35z m425 18 c107 -72 106 -258 -3 -337 -54 -40 -105 -46 -161 -22 -98 43
-133 172 -78 280 48 95 163 132 242 79z m-1168 -24 c4 -4 -26 -26 -67 -49 -40
-24 -94 -66 -119 -94 -33 -37 -56 -53 -80 -57 l-34 -5 -13 67 c-11 56 -10 69
1 76 21 13 188 51 300 68 3 1 9 -2 12 -6z m156 -40 c7 -27 23 -71 36 -100 l23
-51 -107 -42 c-58 -23 -156 -68 -217 -100 l-112 -58 -12 27 c-7 14 -23 52 -36
84 -24 61 -24 60 26 71 14 3 33 19 43 35 19 33 117 107 180 137 20 10 37 24
37 31 0 9 18 13 64 13 l64 0 11 -47z m50 25 c-7 -12 -9 -42 -6 -72 5 -51 5
-51 -9 -19 -7 18 -18 50 -23 73 -9 40 -9 40 20 40 27 0 29 -2 18 -22z m64 13
c11 -4 27 -30 38 -61 22 -65 23 -76 7 -62 -7 5 -22 12 -32 14 -16 2 -20 -3
-20 -32 -1 -23 -6 -36 -17 -38 -12 -2 -18 12 -27 62 -7 35 -10 71 -7 80 3 9 7
23 10 31 5 16 19 18 48 6z m137 -49 c0 -34 -3 -43 -10 -32 -13 20 -13 93 0 85
6 -3 10 -27 10 -53z m-60 10 c12 -9 29 -41 39 -70 l18 -52 -22 0 c-17 0 -27
11 -43 48 -40 94 -38 111 8 74z m446 -4 c49 -56 49 -53 -17 -92 -33 -20 -62
-36 -64 -36 -3 0 -9 9 -15 20 -8 15 -7 28 6 52 17 35 53 78 64 78 4 0 15 -10
26 -22z m-323 -47 c3 -13 -5 -29 -24 -47 -16 -15 -29 -26 -30 -23 -6 31 -5 57
3 72 14 27 22 13 8 -15 -11 -22 -10 -22 4 -4 9 11 16 26 16 34 0 19 16 6 23
-17z m-803 -4 c0 -13 6 -44 14 -70 l14 -45 -45 -17 c-66 -26 -135 -86 -185
-162 -25 -37 -48 -76 -51 -86 -6 -17 -10 -16 -45 11 -20 16 -51 37 -69 45 -27
15 -33 25 -47 84 -14 62 -14 68 2 80 27 22 272 141 332 162 72 26 80 25 80 -2z
m-664 -25 c-9 -17 -21 -34 -27 -37 -6 -4 -1 12 11 35 12 23 24 40 26 37 3 -3
-2 -19 -10 -35z m1852 -59 c-3 -34 -5 -36 -57 -50 -30 -7 -55 -12 -55 -11 -1
2 -7 15 -14 30 -12 29 -7 33 93 86 26 14 37 -5 33 -55z m-543 32 c0 -11 -8
-21 -17 -23 -14 -3 -18 3 -18 23 0 20 4 26 18 23 9 -2 17 -12 17 -23z m195 10
c11 -13 8 -21 -20 -50 -33 -34 -34 -34 -48 -14 -13 19 -12 23 14 50 32 33 37
35 54 14z m-166 -10 c3 -8 1 -15 -4 -15 -6 0 -10 7 -10 15 0 8 2 15 4 15 2 0
6 -7 10 -15z m221 -5 c3 -6 -1 -7 -9 -4 -18 7 -21 14 -7 14 6 0 13 -4 16 -10z
m68 -96 c-72 -72 -76 -74 -94 -58 -11 10 -21 15 -24 12 -3 -3 1 -11 10 -18 8
-7 15 -22 15 -33 0 -20 -1 -20 -27 5 l-27 27 65 68 c78 82 116 105 141 85 15
-13 10 -21 -59 -88z m257 75 c0 -17 -4 -28 -10 -24 -5 3 -10 17 -10 31 0 13 5
24 10 24 6 0 10 -14 10 -31z m-293 -3 c2 -1 -20 -24 -47 -51 l-49 -48 -19 23
c-19 24 -19 24 11 57 27 29 35 33 66 27 20 -4 37 -7 38 -8z m-1623 -48 c-7
-29 -15 -74 -19 -100 -6 -43 -9 -49 -38 -56 -18 -5 -33 -5 -35 -1 -7 18 86
209 102 209 1 0 -3 -24 -10 -52z m1397 30 c6 -13 29 -44 51 -70 29 -35 37 -52
30 -64 -7 -13 -11 -12 -26 11 -12 18 -24 25 -39 23 -18 -2 -21 -8 -19 -36 3
-31 2 -33 -17 -22 -25 13 -26 27 -4 52 23 25 4 45 -27 28 -31 -16 -34 -8 -8
25 12 15 23 37 24 49 3 27 2 26 14 26 5 0 14 -10 21 -22z m78 -34 c55 -73 40
-94 -19 -27 -57 65 -66 83 -42 83 12 0 36 -23 61 -56z m-129 31 c0 -8 -8 -28
-19 -45 l-18 -31 -15 23 c-14 21 -14 26 0 46 16 25 52 30 52 7z m-60 1 c0 -3
-4 -8 -10 -11 -5 -3 -10 -1 -10 4 0 6 5 11 10 11 6 0 10 -2 10 -4z m467 -26
c10 -26 8 -31 -14 -45 -13 -9 -42 -32 -63 -51 -34 -31 -42 -34 -61 -24 -21 12
-19 14 47 81 38 38 71 69 74 69 3 0 11 -13 17 -30z m-497 8 c0 -7 25 -42 55
-78 85 -102 85 -100 22 -100 -66 0 -148 -23 -171 -49 -16 -17 -16 -21 3 -71
29 -77 17 -129 -44 -189 l-46 -46 -60 65 c-33 36 -92 112 -130 170 -81 121
-85 106 46 173 74 38 301 135 318 136 4 1 7 -5 7 -11z m-488 -117 c15 -35 27
-65 26 -66 -120 -78 -212 -140 -245 -165 -48 -35 -56 -25 -27 31 14 29 14 32
-3 44 -15 12 -21 11 -40 -7 -36 -33 -40 -12 -10 46 43 83 119 160 190 196 l62
31 9 -23 c5 -13 22 -52 38 -87z m1141 45 c-4 -19 -12 -21 -69 -23 -61 -2 -64
-1 -64 22 0 27 20 41 77 53 32 7 40 5 49 -11 6 -10 9 -29 7 -41z m-1638 -51
c13 -56 13 -57 -9 -50 -11 4 -43 9 -69 12 -26 3 -46 9 -45 13 4 11 102 89 106
85 2 -2 9 -29 17 -60z m1094 48 c-7 -10 -14 -20 -16 -22 -1 -1 -7 0 -14 4 -8
6 -4 12 12 21 32 18 34 17 18 -3z m399 -5 c-3 -23 -93 -84 -103 -69 -6 10 79
91 95 91 6 0 10 -10 8 -22z m188 -25 c-8 -8 -36 10 -36 25 0 13 3 12 20 -3 11
-10 18 -20 16 -22z m313 -25 c11 -35 15 -55 8 -44 -7 10 -23 32 -36 48 -19 23
-21 31 -11 43 7 8 14 15 15 15 2 0 12 -28 24 -62z m-823 16 c16 -24 16 -26 0
-42 -15 -15 -18 -15 -26 -2 -13 20 -13 70 0 70 5 0 17 -12 26 -26z m133 -110
c7 -34 10 -68 6 -73 -4 -7 -22 0 -49 18 -40 28 -43 33 -49 88 -8 76 4 91 47
56 27 -21 35 -37 45 -89z m423 91 c52 -25 61 -51 11 -30 -64 27 -74 8 -37 -69
20 -41 18 -42 -11 -7 -14 16 -42 40 -61 52 -32 20 -34 23 -20 38 25 27 19 37
-8 12 -20 -19 -28 -21 -64 -13 -23 6 -43 7 -47 4 -3 -3 -5 0 -5 6 0 24 37 32
120 29 54 -3 98 -11 122 -22z m245 -23 c48 -73 60 -101 72 -179 17 -108 13
-202 -8 -243 l-19 -34 -12 59 c-16 79 -64 211 -93 255 -21 31 -22 38 -11 65 7
17 13 48 14 71 0 38 6 54 19 54 3 0 20 -21 38 -48z m-601 -15 c9 -27 2 -28
-34 -5 -17 11 -32 28 -32 39 0 17 1 17 30 1 17 -9 33 -25 36 -35z m90 28 c-11
-8 -25 -15 -30 -15 -6 0 -2 7 8 15 11 8 25 15 30 15 6 0 2 -7 -8 -15z m434
-65 l-11 -42 -49 48 -49 49 50 6 c28 4 53 10 57 14 12 12 13 -32 2 -75z m-694
25 c10 -40 1 -49 -26 -27 -21 17 -22 22 -11 36 19 22 30 20 37 -9z m326 13
c-23 -8 -39 -8 -55 0 -19 9 -13 11 33 10 53 0 54 -1 22 -10z m201 -30 c-18
-20 -33 -9 -33 24 0 15 4 16 25 6 24 -11 24 -12 8 -30z m-1691 -6 c79 -39 170
-131 210 -214 78 -159 78 -348 1 -508 -15 -30 -26 -64 -26 -75 1 -11 -1 -14
-4 -7 -3 8 -19 -3 -44 -32 -156 -177 -408 -193 -581 -37 -138 124 -202 320
-163 505 40 192 135 316 293 383 49 20 70 23 153 21 84 -3 103 -7 161 -36z
m1403 27 c44 -12 75 -35 75 -56 0 -18 -10 -17 -75 8 -40 15 -55 25 -55 40 0
22 2 22 55 8z m183 -19 c23 -17 42 -34 42 -39 0 -10 -48 -21 -89 -21 -19 0
-32 9 -45 31 -10 17 -16 31 -14 33 7 5 53 25 59 25 3 1 25 -13 47 -29z m-275
1 c29 -15 31 -25 18 -84 -11 -46 -13 -49 -35 -41 -11 4 -13 10 -7 18 7 8 5 30
-4 67 -17 64 -17 62 -7 57 4 -2 19 -10 35 -17z m491 -22 c27 -33 33 -46 26
-59 -6 -12 -17 -16 -30 -13 -11 3 -20 1 -20 -5 0 -5 -9 -12 -21 -15 -17 -5
-19 -9 -10 -26 8 -14 8 -22 0 -26 -6 -4 -11 -5 -12 -4 -12 22 -36 81 -44 106
-9 27 -8 35 9 50 11 10 29 17 40 15 13 -2 18 0 14 7 -18 28 16 7 48 -30z
m-700 10 c10 -9 -25 -49 -42 -49 -10 0 -13 3 -7 8 6 4 16 16 24 27 7 11 -35
-29 -94 -89 l-107 -110 6 40 c5 26 2 51 -9 76 -25 60 -20 74 28 92 23 8 53 17
67 18 30 4 127 -6 134 -13z m-547 -81 c33 -51 92 -129 130 -173 l70 -80 -134
-140 -133 -140 0 46 c0 50 -28 99 -58 100 -9 0 -31 19 -47 42 -25 34 -37 43
-68 45 -31 3 -38 8 -43 30 -11 51 -27 97 -45 133 -18 35 -18 37 0 53 22 20
254 176 262 176 3 0 33 -42 66 -92z m617 -4 c1 -31 -4 -40 -24 -50 -28 -15
-43 -6 -66 37 -13 26 -12 30 11 53 14 14 25 31 25 38 0 7 12 1 26 -14 19 -18
27 -37 28 -64z m304 -3 c-2 -19 -10 -37 -18 -41 -8 -4 -25 -12 -38 -19 -31
-16 -97 11 -88 36 4 9 9 35 13 58 l5 41 64 -21 c64 -20 64 -20 62 -54z m192
22 c16 -20 20 -38 18 -72 l-3 -46 -53 -9 c-50 -8 -54 -7 -70 15 -13 18 -35 81
-42 117 0 1 17 2 38 3 20 0 46 4 57 9 30 13 32 12 55 -17z m-592 -43 c34 -55
39 -57 82 -35 25 13 30 22 30 50 l0 35 35 -22 c24 -16 33 -28 28 -38 -11 -24
-8 -139 4 -151 8 -8 0 -37 -29 -107 -34 -83 -84 -190 -93 -200 -4 -5 -95 43
-120 62 -17 13 -18 15 -3 16 27 0 32 20 10 36 -12 8 -19 21 -16 29 3 8 -5 19
-22 28 -45 24 -10 29 46 7 29 -11 61 -18 72 -14 18 5 19 13 15 92 -3 87 -36
191 -73 233 -8 9 -11 19 -7 22 9 10 7 12 41 -43z m442 9 c13 -49 7 -74 -17
-65 -9 4 -20 1 -24 -5 -8 -14 -59 -4 -59 11 0 6 11 10 25 10 29 0 60 41 52 70
-3 11 -1 20 4 20 4 0 13 -18 19 -41z m-1310 19 c-1 -7 -6 -23 -14 -36 -11 -20
-14 -21 -25 -8 -9 11 -10 20 -1 35 12 23 40 29 40 9z m1663 -30 c54 -94 105
-284 86 -319 -5 -10 -9 -28 -9 -42 0 -34 -9 -38 -42 -21 -35 18 -44 14 -29
-14 18 -34 13 -45 -11 -28 -31 22 -37 20 -53 -16 -14 -32 -14 -29 -17 67 -4
149 -2 177 10 210 29 80 34 112 22 135 -9 18 -9 27 1 46 7 13 13 24 15 24 1 0
13 -19 27 -42z m-797 -68 c20 -47 29 -87 32 -144 l4 -78 -34 5 c-18 2 -47 10
-65 18 -26 11 -36 11 -60 -1 l-28 -13 38 -15 c23 -9 36 -20 33 -28 -3 -7 2
-18 10 -24 21 -18 17 -30 -10 -30 -21 0 -98 53 -185 127 l-34 29 65 65 c36 36
80 71 97 78 16 7 33 21 36 31 3 10 15 30 27 45 26 33 35 25 74 -65z m725 76
c-1 -4 6 -20 14 -36 12 -22 13 -35 5 -49 -5 -11 -10 -29 -10 -40 0 -11 -5 -32
-11 -48 -10 -26 -11 -27 -21 -9 -7 13 -7 20 1 25 7 5 8 24 2 58 -6 42 -5 55 8
69 15 16 15 17 0 6 -16 -12 -29 -7 -29 10 0 5 5 6 10 3 6 -3 13 1 16 10 6 14
17 15 15 1z m-502 -25 c13 -8 12 -18 -4 -70 -19 -63 -34 -78 -37 -38 -4 69 -3
93 5 105 11 14 17 15 36 3z m421 -28 c0 -7 -4 -13 -10 -13 -5 0 -10 12 -10 28
0 21 2 24 10 12 5 -8 10 -21 10 -27z m1274 14 c-4 -7 -3 -9 1 -4 11 9 66 -43
59 -55 -3 -5 -2 -8 3 -7 40 7 12 -7 -62 -31 -98 -32 -120 -36 -109 -18 4 7 3
8 -5 4 -6 -4 -9 -11 -6 -16 4 -6 -35 -23 -41 -17 -5 5 152 164 159 160 4 -2 4
-10 1 -16z m106 -17 c46 -18 74 -34 72 -42 -3 -10 -50 -78 -105 -152 -5 -7
-24 8 -52 38 -56 62 -49 74 9 17 27 -26 46 -39 50 -32 4 6 -9 25 -28 42 -20
17 -36 35 -36 39 0 7 67 25 83 22 18 -5 3 16 -40 55 -27 23 -43 42 -38 43 6 0
44 -13 85 -30z m-2136 6 c-3 -8 -13 -17 -22 -21 -13 -5 -13 -2 3 15 21 24 26
25 19 6z m404 -9 l22 -13 -30 -29 c-19 -19 -30 -39 -30 -57 0 -30 -6 -33 -29
-19 -13 8 -12 18 4 70 19 64 25 68 63 48z m403 -45 c9 -43 -5 -41 -19 4 -8 26
-8 34 1 31 6 -2 14 -18 18 -35z m-327 19 c17 -7 26 -19 28 -38 3 -25 7 -28 34
-25 l31 3 -4 -73 c-9 -153 -49 -358 -70 -358 -37 0 -172 34 -243 61 l-79 31
43 86 c24 48 54 115 67 150 19 50 28 62 42 57 63 -19 59 -21 51 20 -6 35 -4
41 27 66 39 32 39 32 73 20z m79 2 c-7 -2 -19 -2 -25 0 -7 3 -2 5 12 5 14 0
19 -2 13 -5z m37 -3 c0 -5 -2 -10 -4 -10 -3 0 -8 5 -11 10 -3 6 -1 10 4 10 6
0 11 -4 11 -10z m190 -37 c0 -21 -16 -15 -34 11 -11 18 -12 26 -3 29 14 5 37
-20 37 -40z m16 -92 c-3 -20 -6 -52 -6 -71 0 -33 -2 -32 -24 25 -13 33 -27 68
-30 78 -12 36 -32 15 -54 -57 -19 -59 -21 -79 -12 -95 20 -38 36 -22 32 32 -3
29 7 19 24 -23 16 -39 17 -40 35 -24 27 25 23 7 -6 -28 -30 -36 -30 -38 -5
-71 26 -33 26 -36 -15 -53 -19 -8 -36 -21 -36 -29 -1 -8 -2 -21 -3 -27 -1 -9
-28 -14 -88 -16 -49 -1 -88 -1 -88 1 0 1 9 43 20 93 11 49 25 148 31 219 13
145 12 144 94 160 l50 10 43 -44 c39 -40 43 -48 38 -80z m-238 97 c3 -13 -3
-18 -22 -18 -20 0 -26 5 -26 21 0 15 5 20 22 17 13 -2 24 -11 26 -20z m-2117
-35 c-5 -10 -14 -44 -21 -75 l-13 -58 -39 0 c-44 0 -45 3 -22 81 21 71 19 69
65 69 35 0 39 -2 30 -17z m-1103 -38 c6 -6 -7 -39 -27 -64 l-18 -24 -142 48
c-77 25 -146 45 -152 43 -6 -2 57 -25 140 -51 83 -26 151 -50 151 -53 0 -7
-138 -184 -145 -187 -4 -1 -28 32 -55 73 -41 61 -54 74 -76 75 -24 0 -29 7
-45 54 -10 29 -16 58 -13 63 3 5 0 15 -6 23 -10 12 16 13 186 9 109 -3 200 -7
202 -9z m3407 -59 c24 -63 25 -86 6 -86 -5 0 -14 14 -21 30 -17 40 -40 39 -41
-2 -1 -26 -3 -28 -6 -10 -4 21 26 146 34 139 1 -2 14 -34 28 -71z m1214 42
c22 -27 22 -30 5 -25 -10 3 -41 12 -69 18 l-49 12 34 13 c49 17 52 17 79 -18z
m-4589 -103 c-11 -50 -15 -51 -39 -11 l-22 35 22 43 22 43 13 -37 c8 -24 9
-49 4 -73z m2500 13 l62 -53 -39 -8 c-81 -16 -113 -28 -140 -51 -22 -19 -40
-24 -87 -24 l-59 0 94 94 c51 52 97 94 100 94 4 0 35 -24 69 -52z m948 -155
c-2 -39 -6 -75 -10 -78 -3 -4 -27 -13 -52 -20 -44 -13 -46 -13 -46 6 0 11 10
23 23 28 13 5 29 16 36 25 12 15 11 21 -7 46 l-22 29 27 31 c19 24 28 47 32
89 l5 56 9 -70 c4 -38 7 -102 5 -142z m225 86 c-5 -18 -15 -35 -22 -37 -16 -5
-11 39 11 101 l13 39 3 -35 c2 -19 -1 -50 -5 -68z m-1663 71 c10 -5 27 -25 39
-45 11 -19 32 -40 45 -45 33 -12 46 -39 46 -93 0 -31 -6 -49 -20 -62 -19 -17
-21 -17 -38 -2 -10 10 -25 17 -33 17 -8 0 -32 21 -53 46 -26 31 -41 42 -46 34
-4 -7 -8 27 -9 74 l-2 86 26 0 c15 0 35 -4 45 -10z m-2030 -81 c0 -4 -24 -37
-52 -75 -62 -80 -125 -122 -184 -123 -49 -1 -57 7 -77 77 l-16 52 39 0 c28 0
45 -7 60 -22 l20 -22 -37 -40 -38 -41 40 36 c22 20 46 35 53 34 7 -2 8 -1 2 2
-5 2 25 50 67 105 l76 101 23 -39 c13 -22 24 -42 24 -45z m3647 19 c-3 -8 -6
-5 -6 6 -1 11 2 17 5 13 3 -3 4 -12 1 -19z m-3411 -25 c-2 -10 -8 -37 -11 -60
-4 -24 -10 -43 -14 -43 -8 0 -74 21 -79 25 -2 2 2 23 9 49 l11 46 45 0 c37 0
44 -3 39 -17z m2358 2 c10 -8 23 -12 28 -9 5 3 30 -8 56 -25 123 -78 308 -152
421 -167 49 -6 50 -8 44 -33 -14 -61 -87 -242 -127 -316 l-43 -80 -51 3 c-62
3 -195 41 -297 83 l-73 31 74 100 c79 106 190 285 182 294 -3 2 -26 -33 -52
-78 -42 -75 -134 -209 -193 -283 l-23 -27 -57 32 c-139 78 -353 243 -353 273
0 18 32 47 51 47 12 0 24 13 33 34 18 44 42 56 106 56 39 0 59 6 83 24 18 14
52 29 75 35 24 5 46 12 49 15 11 11 48 6 67 -9z m-2454 1 c0 -3 -4 -16 -9 -29
-7 -17 -22 -27 -52 -35 -24 -6 -44 -10 -45 -9 -6 6 26 37 56 56 34 20 50 26
50 17z m3510 -26 c0 -24 -4 -30 -22 -30 -20 0 -20 1 -5 18 10 10 17 24 17 30
0 7 2 12 5 12 3 0 5 -13 5 -30z m-3920 0 c0 -5 -14 -7 -32 -3 -46 8 -48 13 -5
13 21 0 37 -4 37 -10z m540 -59 l18 -61 -23 0 c-15 0 -26 7 -30 20 -6 20 4
114 12 107 2 -3 13 -32 23 -66z m3325 61 c6 -4 11 -27 13 -52 3 -36 -1 -50
-18 -65 -16 -14 -23 -16 -32 -7 -9 9 -21 3 -50 -25 l-38 -37 0 27 c0 19 8 31
30 42 16 8 45 29 65 46 33 29 34 31 19 55 -16 23 -10 32 11 16z m83 -63 c-14
-76 -28 -105 -22 -44 7 71 13 95 23 95 4 0 4 -23 -1 -51z m-134 22 c17 -18 16
-20 -19 -46 -19 -15 -38 -25 -41 -22 -5 5 32 87 40 87 1 0 11 -9 20 -19z m106
-22 c0 -11 -9 -67 -21 -122 -21 -103 -54 -184 -91 -224 -11 -12 -18 -26 -14
-31 11 -18 -165 -240 -222 -280 -15 -11 -34 -17 -44 -13 -27 10 72 149 125
176 22 11 63 42 91 69 l51 48 -50 -39 c-46 -36 -125 -86 -125 -80 0 2 11 25
24 53 28 57 73 198 82 253 4 24 20 55 43 81 32 37 39 42 58 32 17 -9 24 -7 42
12 12 13 21 35 21 54 0 22 5 32 15 32 9 0 15 -9 15 -21z m-3448 -43 c-4 -7
-36 -52 -71 -99 l-65 -86 -23 34 c-13 19 -23 39 -23 45 0 6 24 42 52 79 l53
68 42 -14 c30 -10 41 -19 35 -27z m1788 23 c0 -20 -25 -48 -43 -49 -7 0 0 45
10 63 9 16 33 6 33 -14z m-1894 2 c-7 -11 -105 -35 -113 -28 -3 3 15 11 38 17
24 6 49 13 54 15 18 7 26 5 21 -4z m1994 -96 c0 -5 -32 -44 -70 -85 -54 -58
-69 -70 -70 -54 0 11 9 29 21 40 25 22 21 74 -8 107 -17 19 -17 20 1 31 10 6
26 19 35 28 14 17 18 16 53 -19 21 -20 38 -42 38 -48z m-1809 -36 c27 -56 53
-99 56 -95 3 3 -4 21 -15 40 -12 20 -17 38 -11 41 11 7 30 -38 33 -81 2 -17 6
-37 11 -44 5 -9 2 -11 -11 -6 -11 3 -73 17 -139 32 -66 15 -121 28 -123 30 -5
4 132 184 140 184 4 0 31 -45 59 -101z m1820 59 c11 -21 11 -22 -4 -9 -10 7
-17 17 -17 22 0 15 9 10 21 -13z m1351 -17 c-3 -22 -13 -34 -39 -46 -41 -20
-63 -14 -63 17 0 18 10 26 48 39 26 9 50 17 53 18 3 0 4 -12 1 -28z m-3152 9
c0 -5 -6 -10 -14 -10 -8 0 -18 5 -21 10 -3 6 3 10 14 10 12 0 21 -4 21 -10z
m-286 -31 c-10 -12 -32 -28 -47 -36 -16 -8 -27 -17 -24 -19 3 -3 18 1 34 9 28
15 29 14 51 -20 13 -19 22 -36 20 -38 -2 -1 -25 -12 -51 -23 l-48 -21 -10 27
c-6 14 -8 34 -6 44 3 9 2 18 -2 20 -4 2 -4 17 1 34 7 26 14 33 50 41 52 11 57
9 32 -18z m1961 -29 c5 -21 1 -34 -14 -49 -12 -12 -21 -34 -21 -52 0 -39 -19
-34 -43 12 -19 34 -19 34 8 92 26 55 28 57 45 42 11 -10 22 -30 25 -45z m1364
9 c11 -31 36 -38 72 -19 10 6 19 8 19 6 0 -3 -14 -13 -31 -21 -19 -11 -39 -34
-53 -64 -12 -27 -49 -80 -82 -118 -33 -39 -71 -95 -83 -125 -24 -61 -38 -68
-125 -68 -70 0 -71 6 -17 116 28 54 67 149 87 209 l37 110 83 2 83 1 10 -29z
m-1159 -61 c0 -41 -35 -14 -55 42 l-16 45 36 -35 c19 -18 35 -42 35 -52z m-65
32 c8 -34 47 -65 71 -56 8 3 12 10 9 16 -12 20 7 9 83 -48 87 -65 159 -112
215 -138 20 -10 37 -21 37 -24 0 -3 -37 -46 -83 -95 -77 -83 -84 -87 -106 -76
-12 7 -30 30 -40 51 -17 37 -77 93 -136 126 -16 9 -34 23 -38 30 -11 19 -54
40 -99 48 -23 4 -44 17 -57 34 l-20 27 71 72 c39 40 75 70 79 67 4 -2 10 -18
14 -34z m1320 -47 c-17 -70 -44 -148 -79 -225 -24 -55 -28 -58 -78 -72 -108
-29 -109 -29 -98 -1 24 62 57 114 104 165 29 30 60 75 70 100 12 33 27 51 54
67 20 11 38 21 39 22 1 1 -5 -25 -12 -56z m237 -85 c198 -456 118 -770 -212
-839 -81 -17 -306 -6 -410 19 -266 65 -559 201 -850 395 -128 85 -342 247
-338 256 2 3 31 32 65 65 l62 58 83 -64 c403 -313 815 -510 1143 -548 121 -13
135 -13 135 5 0 8 8 15 18 15 48 0 119 36 168 85 63 63 86 125 88 239 1 57 6
88 17 104 l16 23 7 -32 c11 -55 6 -164 -9 -216 -34 -115 -120 -184 -270 -216
-11 -3 -1 -3 23 -1 108 9 221 100 255 204 32 99 15 273 -42 417 -17 43 -18 56
-8 82 6 17 14 31 18 31 3 0 22 -37 41 -82z m-3512 43 l75 -19 -100 0 c-55 -1
-109 3 -120 7 -18 7 -17 9 10 19 42 15 50 14 135 -7z m113 -28 c-7 -2 -19 -2
-25 0 -7 3 -2 5 12 5 14 0 19 -2 13 -5z m1805 -77 c15 -8 36 -23 46 -35 11
-12 23 -21 28 -21 19 0 119 -86 133 -113 16 -33 19 -34 -105 55 -133 96 -170
127 -147 128 10 0 30 -6 45 -14z m-325 -32 l37 -35 -73 -76 -74 -76 -73 84
-73 83 70 12 c38 6 83 19 99 27 40 22 44 21 87 -19z m-263 -22 c0 -5 34 -45
75 -89 73 -79 74 -81 55 -98 -16 -14 -23 -15 -34 -5 -19 15 -118 137 -141 173
l-17 27 31 0 c17 0 31 -4 31 -8z m1285 -96 c50 -14 111 -28 138 -32 26 -3 47
-8 47 -11 0 -11 -91 -126 -149 -187 -39 -41 -53 -61 -35 -48 34 23 109 108
164 185 l35 49 86 1 86 2 -5 -37 c-3 -27 2 -47 17 -74 l22 -37 -27 -28 c-34
-35 -104 -63 -214 -83 -132 -25 -147 -23 -283 45 -104 52 -215 114 -266 148
-11 7 5 30 70 103 l84 94 70 -32 c38 -18 111 -44 160 -58z m-965 -45 c0 -66 3
-126 6 -135 12 -31 -21 -16 -86 39 -36 31 -67 60 -69 66 -3 11 127 149 141
149 5 0 8 -54 8 -119z m203 -50 c56 -42 119 -87 140 -101 20 -14 37 -28 37
-32 0 -11 -129 -74 -168 -83 -31 -6 -77 16 -196 97 -6 4 -6 12 2 21 7 7 8 17
4 21 -4 4 -7 56 -7 116 l0 108 43 -35 c24 -19 89 -70 145 -112z m1297 84 c0
-21 -104 -155 -121 -155 -5 0 -16 14 -24 30 -22 42 -11 100 19 101 11 0 41 6
66 13 56 17 60 17 60 11z m-1616 -113 c22 -20 54 -47 71 -59 25 -18 27 -23 16
-37 -7 -9 -17 -16 -21 -16 -5 0 -40 25 -79 57 -68 53 -70 57 -55 75 10 10 19
18 22 18 3 0 23 -17 46 -38z m1550 -56 c-10 -8 -37 -25 -59 -37 l-40 -22 34
36 c19 20 43 38 55 39 30 5 33 0 10 -16z m-1325 -108 l55 -32 -30 -8 c-24 -6
-41 0 -99 34 -38 22 -72 43 -74 45 -3 2 4 10 15 17 17 13 23 12 49 -5 17 -11
54 -34 84 -51z m319 36 c13 -9 71 -44 129 -79 l105 -64 -51 -25 c-28 -14 -57
-26 -65 -26 -26 0 -186 50 -261 81 l-75 32 93 47 c50 26 94 47 97 48 3 1 16
-5 28 -14z m921 2 c-18 -16 -90 -55 -84 -46 8 14 66 50 79 50 5 0 7 -2 5 -4z
m-103 -45 c-10 -11 -42 -32 -71 -47 l-54 -29 -56 20 -57 19 107 18 c58 10 114
22 123 28 25 14 27 12 8 -9z m-1023 -58 c18 -9 79 -34 137 -54 58 -21 101 -38
95 -38 -46 -2 -315 85 -315 101 0 14 50 9 83 -9z m481 -61 c5 -8 -81 -33 -107
-31 -17 1 65 38 85 39 9 0 19 -4 22 -8z m56 -27 c24 -14 23 -14 -31 -15 -31 0
-72 -3 -90 -6 -49 -10 -30 5 27 20 64 18 65 18 94 1z m2292 -142 c-6 -61 33
-148 92 -208 28 -29 58 -55 66 -57 43 -15 -193 -198 -255 -198 -74 0 -227 -63
-270 -110 -30 -34 -114 -19 -168 30 -28 25 -30 29 -14 35 11 5 26 0 40 -11 19
-17 20 -17 8 -1 -17 21 -22 17 66 57 100 45 149 102 117 135 -9 8 -25 15 -37
15 -44 0 -163 -67 -226 -128 -19 -18 -31 1 -31 48 l0 34 -40 -39 c-45 -44 -51
-75 -24 -131 22 -46 62 -73 99 -68 l30 4 -29 -9 c-19 -7 -34 -6 -46 1 -14 9
-33 5 -89 -15 -76 -28 -116 -34 -126 -17 -13 21 8 51 71 100 44 36 64 59 64
74 0 13 19 40 46 66 25 25 53 64 64 87 15 35 25 44 58 53 59 15 155 83 213
150 35 41 67 65 108 84 64 28 153 54 191 55 24 1 25 -2 22 -36z m183 22 c70
-19 85 -29 85 -61 0 -59 -77 -214 -106 -214 -28 0 -111 97 -133 155 -21 55
-27 115 -14 128 12 12 107 7 168 -8z m-521 -63 l39 -17 -28 -33 c-15 -18 -32
-29 -37 -25 -6 3 -8 2 -5 -4 9 -14 -26 -44 -97 -87 -71 -43 -84 -44 -132 -11
-21 14 -51 25 -70 25 -19 0 -34 5 -34 11 0 5 5 7 12 3 7 -5 8 -3 3 6 -13 22
100 106 183 136 51 18 120 17 166 -4z m-3854 -52 l-35 -29 49 -1 c39 0 55 6
86 30 49 39 66 39 20 0 l-35 -29 29 -1 c18 0 41 11 63 30 18 17 43 30 54 30
52 0 109 -57 109 -110 0 -56 -60 -110 -121 -110 -26 0 -20 24 7 29 53 9 73 76
32 105 -18 13 -55 16 -190 16 -155 0 -170 -2 -188 -20 -11 -11 -20 -33 -20
-51 l0 -30 37 30 c38 32 68 41 61 19 -3 -7 -40 -41 -83 -76 l-78 -64 -79 7
-78 6 -185 -126 c-102 -69 -190 -123 -196 -119 -8 5 -8 1 0 -14 16 -29 -16
-67 -48 -57 -26 8 -42 43 -30 66 4 8 105 75 223 148 l216 133 79 -7 c76 -7 81
-6 114 19 35 26 35 27 20 58 -13 25 -13 37 -4 70 17 55 58 78 141 78 l65 -1
-35 -29z m20 -177 c-46 -49 -90 -94 -97 -102 -18 -21 -27 -7 -12 21 16 32 161
168 178 168 8 0 -23 -39 -69 -87z m135 -23 c-41 -54 -85 -106 -97 -114 -17
-12 -49 -16 -140 -16 l-118 0 -57 -52 c-200 -179 -283 -262 -283 -283 0 -27
-18 -45 -45 -45 -50 0 -60 51 -17 91 92 87 342 296 371 311 28 14 52 16 145
12 61 -3 116 -2 121 3 6 4 35 37 65 73 85 101 112 130 122 124 4 -3 -26 -50
-67 -104z m-185 25 c-13 -16 -55 -20 -64 -6 -9 14 5 21 42 21 29 0 33 -2 22
-15z m160 0 c-13 -16 -80 -21 -80 -7 0 16 14 22 53 22 34 0 38 -2 27 -15z
m3715 -65 c-3 -6 1 -7 9 -4 12 4 16 0 16 -16 0 -11 -4 -19 -9 -16 -5 3 -8 -2
-7 -11 1 -22 -85 -75 -161 -97 -32 -10 -67 -21 -78 -26 -33 -14 -65 -19 -65
-10 0 9 119 107 177 145 24 15 49 25 58 21 9 -3 13 -2 10 3 -3 5 3 12 12 14
32 8 44 7 38 -3z m-3925 -177 l0 -58 -129 -171 c-105 -139 -128 -175 -124
-196 3 -14 0 -28 -5 -32 -6 -4 -8 2 -5 14 3 11 0 27 -7 35 -10 12 -10 15 0 15
8 0 11 2 8 5 -3 3 -17 1 -32 -4 -28 -11 -34 -38 -13 -61 10 -12 9 -12 -5 -1
-10 7 -18 20 -18 28 0 15 60 94 224 292 79 96 86 109 86 148 0 24 5 43 10 43
6 0 10 -26 10 -57z m4200 15 c0 -38 -45 -121 -82 -154 -46 -40 -145 -87 -169
-81 -11 3 -17 2 -14 -3 3 -4 -9 -10 -25 -12 -17 -3 -30 -4 -30 -2 0 1 7 18 15
38 9 21 15 58 13 83 -1 35 3 49 18 60 46 36 196 91 252 92 16 1 22 -5 22 -21z
m-437 -95 c-7 -2 -19 -2 -25 0 -7 3 -2 5 12 5 14 0 19 -2 13 -5z m-1803 -254
c0 -110 -1 -116 -22 -127 -40 -20 -151 -62 -164 -62 -11 0 -34 118 -34 177 0
25 0 25 74 21 l73 -3 23 40 c12 22 17 34 9 28 -14 -14 -79 -18 -79 -5 1 15
105 69 112 58 4 -6 8 -63 8 -127z"/>
<path d="M3815 5185 c9 -22 24 -57 32 -78 9 -21 17 -36 20 -34 5 5 -47 128
-60 142 -5 6 -1 -8 8 -30z"/>
<path d="M3871 5055 c0 -5 6 -21 14 -35 8 -14 14 -20 14 -15 0 6 -6 21 -14 35
-8 14 -14 21 -14 15z"/>
<path d="M3900 4985 c0 -5 5 -17 10 -25 5 -8 10 -10 10 -5 0 6 -5 17 -10 25
-5 8 -10 11 -10 5z"/>
<path d="M901 4764 c0 -11 3 -14 6 -6 3 7 2 16 -1 19 -3 4 -6 -2 -5 -13z"/>
<path d="M932 4460 c0 -19 2 -27 5 -17 2 9 2 25 0 35 -3 9 -5 1 -5 -18z"/>
<path d="M943 4403 c1 -12 -9 -34 -23 -50 l-25 -28 30 25 c17 14 31 25 33 26
1 1 -2 12 -8 25 -9 22 -10 22 -7 2z"/>
<path d="M1858 4801 c30 -4 57 -13 62 -21 6 -10 10 -11 10 -3 0 20 -35 33 -82
32 -43 -2 -43 -2 10 -8z"/>
<path d="M1968 4711 c-60 -127 -282 -331 -515 -473 -88 -54 -115 -79 -35 -32
176 102 379 265 479 384 49 59 111 165 102 175 -2 2 -16 -22 -31 -54z"/>
<path d="M1270 4135 c-47 -24 -82 -44 -77 -44 10 -1 167 78 167 84 0 7 4 9
-90 -40z"/>
<path d="M1130 4073 c-19 -8 -66 -23 -105 -34 -38 -10 -60 -18 -48 -18 25 -1
170 43 193 59 22 14 0 11 -40 -7z"/>
<path d="M908 4013 c6 -2 18 -2 25 0 6 3 1 5 -13 5 -14 0 -19 -2 -12 -5z"/>
<path d="M6183 4575 c0 -8 4 -12 9 -9 4 3 8 9 8 15 0 5 -4 9 -8 9 -5 0 -9 -7
-9 -15z"/>
<path d="M4535 4202 c-50 -23 -91 -70 -105 -120 -13 -50 -13 -69 5 -129 46
-154 222 -245 353 -182 155 75 127 318 -48 413 -68 37 -149 44 -205 18z m180
-21 c59 -28 97 -65 89 -87 -4 -14 -3 -15 4 -6 7 11 15 5 33 -25 35 -56 39
-157 9 -211 -31 -55 -83 -82 -157 -82 -64 0 -151 36 -145 60 1 6 -2 9 -7 6
-15 -10 -73 63 -66 84 3 10 1 21 -4 25 -7 4 -9 -1 -5 -12 5 -17 5 -17 -6 -1
-18 28 -24 112 -11 151 19 55 49 89 75 82 16 -5 18 -4 6 4 -12 8 -10 12 10 20
42 16 131 12 175 -8z"/>
<path d="M4465 4090 c3 -5 8 -10 11 -10 2 0 4 5 4 10 0 6 -5 10 -11 10 -5 0
-7 -4 -4 -10z"/>
<path d="M4372 3567 c-32 -34 -29 -87 6 -125 51 -54 115 -54 155 0 18 24 19
32 8 68 -22 74 -122 107 -169 57z m108 -2 c35 -18 50 -43 50 -82 0 -36 -9 -50
-40 -61 -83 -30 -169 79 -110 138 24 24 60 26 100 5z"/>
<path d="M4874 3531 c-49 -30 -77 -77 -82 -137 -6 -69 2 -96 39 -139 50 -56
118 -60 180 -8 86 73 91 207 10 276 -40 33 -101 36 -147 8z m127 -7 c43 -22
73 -93 65 -153 -11 -82 -79 -151 -148 -151 -62 0 -118 71 -118 151 0 121 106
202 201 153z"/>
<path d="M2899 3057 c-128 -36 -223 -137 -264 -281 -13 -43 -16 -85 -13 -160
3 -91 7 -108 39 -176 65 -135 166 -209 294 -218 174 -11 318 118 362 322 62
295 -171 582 -418 513z m198 -32 c155 -69 249 -279 210 -470 -20 -98 -49 -157
-106 -218 -148 -159 -377 -136 -500 50 -92 139 -95 362 -7 501 26 41 100 112
137 133 38 21 130 38 174 32 22 -3 63 -16 92 -28z"/>
<path d="M2871 2867 c-33 -11 -80 -61 -69 -72 2 -3 19 0 37 6 52 18 140 5 217
-31 l68 -33 -30 -24 -29 -23 33 -26 c35 -28 82 -101 82 -127 0 -21 16 -22 24
-1 18 48 -4 114 -57 172 l-21 23 28 22 28 23 -41 27 c-89 59 -207 87 -270 64z"/>
<path d="M2780 2751 c-16 -39 0 -91 48 -149 36 -46 37 -45 -8 -72 -19 -12 0
-28 90 -72 56 -29 75 -33 141 -33 68 0 80 3 103 24 30 28 38 74 9 50 -39 -33
-211 -1 -275 51 l-23 18 28 13 c15 7 27 15 27 19 0 3 -19 24 -41 45 -23 22
-52 61 -64 88 l-22 47 -13 -29z"/>
<path d="M2955 2691 c3 -12 0 -34 -8 -50 l-15 -29 37 -4 c20 -3 43 -8 52 -12
13 -6 16 -2 12 18 -3 15 2 37 11 51 l16 25 -35 0 c-20 0 -45 5 -57 11 -18 9
-19 8 -13 -10z"/>
<path d="M4221 2671 c-16 -29 -13 -56 8 -82 30 -37 47 -13 35 47 -10 52 -27
66 -43 35z m32 -38 c7 -43 3 -51 -18 -33 -23 19 -19 70 5 70 4 0 10 -17 13
-37z"/>
<path d="M6035 2860 c-3 -6 1 -7 9 -4 18 7 21 14 7 14 -6 0 -13 -4 -16 -10z"/>
<path d="M1081 2752 c13 -24 30 -49 38 -55 18 -14 -10 36 -41 74 -16 20 -16
17 3 -19z"/>
<path d="M1295 2490 c27 -12 43 -12 25 0 -8 5 -22 9 -30 9 -10 0 -8 -3 5 -9z"/>
<path d="M1420 2346 c0 -2 7 -7 16 -10 8 -3 12 -2 9 4 -6 10 -25 14 -25 6z"/>
<path d="M1390 2329 c0 -5 5 -7 10 -4 6 3 10 8 10 11 0 2 -4 4 -10 4 -5 0 -10
-5 -10 -11z"/>
<path d="M3635 2290 c-10 -16 4 -48 32 -70 35 -27 41 -25 39 11 -2 43 -54 86
-71 59z m58 -50 c-6 -21 -6 -21 -29 1 -35 33 -32 54 5 34 22 -11 28 -20 24
-35z"/>
<path d="M6111 1352 c-9 -18 -19 -23 -37 -19 -13 2 -24 0 -24 -4 0 -15 47 -10
61 7 12 14 14 14 20 -4 8 -22 49 -49 49 -33 0 5 -8 12 -18 15 -10 4 -23 18
-28 34 l-10 27 -13 -23z"/>
<path d="M6264 1310 c1 -11 -7 -14 -25 -12 -23 3 -26 0 -23 -23 1 -15 5 -29 8
-32 3 -3 0 -15 -5 -26 -10 -18 -9 -19 12 -14 13 3 29 1 36 -5 15 -12 28 -5 18
11 -3 6 -16 11 -28 11 -18 0 -22 6 -23 35 0 25 3 34 12 31 7 -3 18 1 24 9 9
11 16 8 37 -12 22 -23 23 -27 9 -35 -10 -6 -15 -21 -15 -41 l2 -32 4 30 c3 16
14 36 25 44 20 14 20 14 -6 28 -14 7 -26 22 -26 31 0 11 -8 18 -19 18 -10 0
-18 -7 -17 -16z"/>
<path d="M6049 1292 c-13 -15 -12 -16 4 -3 20 15 21 12 8 -22 -11 -28 3 -39
37 -30 11 2 23 0 26 -6 11 -18 26 -13 26 9 0 10 7 23 16 28 11 6 13 11 5 16
-16 10 -31 -2 -31 -25 0 -21 -15 -26 -26 -8 -3 6 -15 9 -25 6 -16 -4 -18 -1
-13 18 7 29 -10 40 -27 17z"/>
<path d="M6060 1178 c0 -21 37 -71 62 -84 47 -26 125 -8 148 35 8 16 5 20 -16
25 -15 4 -29 5 -32 1 -3 -3 2 -5 12 -5 10 0 14 -5 10 -11 -12 -20 -154 14
-154 36 0 8 -7 15 -15 15 -8 0 -15 -6 -15 -12z m109 -47 c48 -9 66 -10 77 0
10 8 14 8 14 0 0 -16 -55 -41 -91 -41 -22 0 -41 10 -65 34 -19 19 -34 39 -34
45 0 6 8 3 18 -7 10 -10 47 -24 81 -31z"/>
<path d="M6038 1115 c6 -11 21 -29 34 -40 22 -19 22 -19 -2 10 -40 48 -43 51
-32 30z"/>
<path d="M6279 1083 l-24 -28 28 24 c15 14 27 26 27 28 0 8 -8 1 -31 -24z"/>
<path d="M5731 1074 c0 -11 3 -14 6 -6 3 7 2 16 -1 19 -3 4 -6 -2 -5 -13z"/>
<path d="M6208 1043 c7 -3 16 -2 19 1 4 3 -2 6 -13 5 -11 0 -14 -3 -6 -6z"/>
<path d="M1323 883 c-19 -7 -16 -51 5 -61 25 -13 42 -4 42 23 0 25 -26 46 -47
38z"/>
<path d="M1503 694 c-9 -24 10 -49 38 -49 27 0 37 28 19 50 -17 20 -49 19 -57
-1z"/>
<path d="M3790 570 c0 -5 23 -10 50 -10 28 0 50 -2 50 -5 0 -4 -7 -19 -15 -35
-9 -17 -13 -30 -10 -30 5 0 45 75 45 85 0 3 -27 5 -60 5 -33 0 -60 -4 -60 -10z"/>
<path d="M3840 469 c0 -5 5 -7 10 -4 6 3 10 8 10 11 0 2 -4 4 -10 4 -5 0 -10
-5 -10 -11z"/>
</g>
</svg>
